<?xml version="1.0" encoding="UTF-8" standalone="no"?>
<svg width="108" height="16" viewBox="10 0 72.000026 16" fill="currentColor" class="actionssprinters-logo" version="1.1"
     xmlns="http://www.w3.org/2000/svg">
    <g style="fill:hsl(247, 15%, 13%);stroke-width:0.0677966" transform="translate(-8)">
        <path d="m 15.468872,14.736669 c -0.147638,-0.147638 -0.269276,-0.366543 -0.341251,-0.614129 -0.141089,-0.485327 -0.461716,-0.908781 -0.887357,-1.171935 -0.304977,-0.188552 -0.380272,-0.204842 -0.946812,-0.204842 -0.562356,0 -0.655048,0.01966 -1.0738,0.227755 -0.543325,0.270001 -0.811267,0.254945 -1.129691,-0.06348 -0.318424,-0.318424 -0.33348,-0.586366 -0.06348,-1.129691 0.208095,-0.418751 0.227755,-0.511444 0.227755,-1.0738 0,-0.566541 -0.01629,-0.641835 -0.204842,-0.9468117 C 10.786241,9.3340956 10.362787,9.0134678 9.8774601,8.872379 9.6351574,8.8019397 9.4109516,8.6787485 9.2717948,8.5395912 9.0850762,8.3528725 9.0508475,8.2692807 9.0508475,8 c 0,-0.2692803 0.034229,-0.3528728 0.2209473,-0.5395914 C 9.4109516,7.3212518 9.6351574,7.19806 9.8774601,7.1276207 10.362787,6.9865323 10.786241,6.6659046 11.049395,6.2402637 c 0.188552,-0.3049771 0.204842,-0.3802713 0.204842,-0.9468115 0,-0.5623561 -0.01966,-0.6550487 -0.227755,-1.0738001 -0.270001,-0.5433256 -0.254945,-0.8112674 0.06348,-1.1296912 0.318424,-0.3184239 0.586366,-0.3334799 1.129691,-0.063479 0.418752,0.208095 0.511444,0.2277553 1.0738,0.2277553 0.56654,0 0.641835,-0.01629 0.946812,-0.2048428 0.42564,-0.2631535 0.746267,-0.6866071 0.887356,-1.1719343 C 15.19806,1.6351574 15.321252,1.4109516 15.460409,1.2717948 15.647127,1.0850762 15.730719,1.0508475 16,1.0508475 c 0.269281,0 0.352873,0.034229 0.539591,0.2209473 0.139157,0.1391568 0.262349,0.3633626 0.332788,0.6056653 0.141089,0.4853272 0.461717,0.9087808 0.887357,1.1719344 0.304977,0.1885529 0.380271,0.2048428 0.946812,0.2048428 0.562356,0 0.655049,-0.01966 1.0738,-0.2277553 0.543325,-0.270001 0.811267,-0.254945 1.129691,0.063479 0.318424,0.3184238 0.33348,0.5863656 0.06348,1.1296912 -0.208095,0.4187514 -0.227755,0.511444 -0.227755,1.0738001 0,0.5665402 0.01629,0.6418344 0.204842,0.9468115 0.263154,0.4256409 0.686608,0.7462686 1.171935,0.887357 0.247586,0.071975 0.466491,0.1936136 0.614129,0.3412518 0.214586,0.2145859 0.227237,0.2520436 0.195759,0.5796326 -0.0418,0.4350278 -0.272463,0.6676407 -0.819833,0.8267654 -0.475964,0.1383668 -0.900491,0.461501 -1.16199,0.8844658 -0.188552,0.3049766 -0.204842,0.3802706 -0.204842,0.9468116 0,0.562356 0.01966,0.655049 0.227755,1.0738 0.270001,0.543325 0.254945,0.811267 -0.06348,1.129691 -0.318424,0.318424 -0.586366,0.33348 -1.129691,0.06348 -0.418751,-0.208095 -0.511444,-0.227755 -1.0738,-0.227755 -0.566541,0 -0.641835,0.01629 -0.946812,0.204842 -0.422964,0.261499 -0.746099,0.686026 -0.884465,1.16199 -0.159125,0.54737 -0.391738,0.778033 -0.826766,0.819833 -0.327589,0.03148 -0.365047,0.01883 -0.579633,-0.195759 z m 1.145795,-3.522011 c 0.624947,-0.114147 1.227592,-0.435284 1.696149,-0.903842 1.280928,-1.2809272 1.280928,-3.3407052 0,-4.6216326 -1.893516,-1.8935168 -5.12971,-0.8299355 -5.541897,1.8213552 -0.346397,2.2281122 1.610019,4.1124784 3.845748,3.7041194 z"/>
        <path d="M 15.186441,10.033969 C 14.381779,9.7052 13.79661,8.8488255 13.79661,8 c 0,-1.1631732 1.040217,-2.2033898 2.20339,-2.2033898 1.163173,0 2.20339,1.0402166 2.20339,2.2033898 0,0.5730677 -0.225033,1.0876749 -0.670374,1.5330158 -0.662492,0.6624922 -1.508941,0.8431942 -2.346575,0.5009532 z"/>
    </g>
    <g fill="#eeeeee">
        <path d="M8 4.754a3.246 3.246 0 1 0 0 6.492 3.246 3.246 0 0 0 0-6.492zM5.754 8a2.246 2.246 0 1 1 4.492 0 2.246 2.246 0 0 1-4.492 0z"/>
        <path d="M9.796 1.343c-.527-1.79-3.065-1.79-3.592 0l-.094.319a.873.873 0 0 1-1.255.52l-.292-.16c-1.64-.892-3.433.902-2.54 2.541l.159.292a.873.873 0 0 1-.52 1.255l-.319.094c-1.79.527-1.79 3.065 0 3.592l.319.094a.873.873 0 0 1 .52 1.255l-.16.292c-.892 1.64.901 3.434 2.541 2.54l.292-.159a.873.873 0 0 1 1.255.52l.094.319c.527 1.79 3.065 1.79 3.592 0l.094-.319a.873.873 0 0 1 1.255-.52l.292.16c1.64.893 3.434-.902 2.54-2.541l-.159-.292a.873.873 0 0 1 .52-1.255l.319-.094c1.79-.527 1.79-3.065 0-3.592l-.319-.094a.873.873 0 0 1-.52-1.255l.16-.292c.893-1.64-.902-3.433-2.541-2.54l-.292.159a.873.873 0 0 1-1.255-.52l-.094-.319zm-2.633.283c.246-.835 1.428-.835 1.674 0l.094.319a1.873 1.873 0 0 0 2.693 1.115l.291-.16c.764-.415 1.6.42 1.184 1.185l-.159.292a1.873 1.873 0 0 0 1.116 2.692l.318.094c.835.246.835 1.428 0 1.674l-.319.094a1.873 1.873 0 0 0-1.115 2.693l.16.291c.415.764-.42 1.6-1.185 1.184l-.291-.159a1.873 1.873 0 0 0-2.693 1.116l-.094.318c-.246.835-1.428.835-1.674 0l-.094-.319a1.873 1.873 0 0 0-2.692-1.115l-.292.16c-.764.415-1.6-.42-1.184-1.185l.159-.291A1.873 1.873 0 0 0 1.945 8.93l-.319-.094c-.835-.246-.835-1.428 0-1.674l.319-.094A1.873 1.873 0 0 0 3.06 4.377l-.16-.292c-.415-.764.42-1.6 1.185-1.184l.292.159a1.873 1.873 0 0 0 2.692-1.115l.094-.319z"/>
    </g>
    <g stroke="#eeeeee">
        <line x1="-8" y1="8" x2="-2" y2="8"/>
        <line x1="-6" y1="5" x2="0" y2="5"/>
        <line x1="-6" y1="11" x2="0" y2="11"/>
    </g>
    <g aria-label="Action" style="fill:#eeeeee">
        <path d="M 24.728786,12.271187 H 23.492458 L 22.63699,9.8395462 H 18.863552 L 18.008083,12.271187 H 16.830349 L 20.00613,3.5465775 h 1.546875 z M 22.279568,8.8434525 20.750271,4.5602493 19.215115,8.8434525 Z"/>
        <path d="m 30.804958,11.861031 q -0.550781,0.263671 -1.048828,0.410156 -0.492187,0.146484 -1.048828,0.146484 -0.708984,0 -1.300781,-0.205078 -0.591797,-0.210937 -1.013672,-0.632812 -0.427734,-0.421875 -0.662109,-1.066407 -0.234375,-0.6445309 -0.234375,-1.505859 0,-1.6054688 0.878906,-2.5195313 0.884765,-0.9140625 2.332031,-0.9140625 0.5625,0 1.101563,0.1582031 0.544921,0.1582032 0.996093,0.3867188 v 1.2246094 h -0.05859 Q 30.242458,6.9508743 29.703396,6.7399368 29.170193,6.5289993 28.660427,6.5289993 q -0.9375,0 -1.482422,0.6328125 -0.539062,0.6269532 -0.539062,1.8457032 0,1.183594 0.527343,1.822266 0.533204,0.632812 1.494141,0.632812 0.333984,0 0.679688,-0.08789 0.345703,-0.08789 0.621093,-0.228515 0.240235,-0.123047 0.451172,-0.257813 0.210938,-0.140625 0.333985,-0.240234 h 0.05859 z"/>
        <path d="m 35.615505,12.212593 q -0.310547,0.08203 -0.679687,0.134766 -0.363282,0.05273 -0.650391,0.05273 -1.001953,0 -1.523437,-0.539062 -0.521485,-0.539063 -0.521485,-1.728516 V 6.6520462 h -0.74414 V 5.726265 h 0.74414 V 3.8454056 h 1.101563 V 5.726265 h 2.273437 v 0.9257812 h -2.273437 v 2.9824219 q 0,0.5156249 0.02344,0.8085939 0.02344,0.287109 0.164063,0.539062 0.128906,0.234375 0.351562,0.345703 0.228516,0.105469 0.691406,0.105469 0.269532,0 0.5625,-0.07617 0.292969,-0.08203 0.421875,-0.134765 h 0.05859 z"/>
        <path d="M 38.129177,4.6305618 H 36.88699 V 3.4879837 h 1.242187 z m -0.07031,7.6406252 H 36.957302 V 5.726265 h 1.101563 z"/>
        <path d="m 45.816677,9.0016556 q 0,1.5996094 -0.820312,2.5253904 -0.820313,0.925781 -2.197266,0.925781 -1.388672,0 -2.208984,-0.925781 -0.814454,-0.925781 -0.814454,-2.5253904 0,-1.5996094 0.814454,-2.5253906 0.820312,-0.9316407 2.208984,-0.9316407 1.376953,0 2.197266,0.9316407 0.820312,0.9257812 0.820312,2.5253906 z m -1.136719,0 q 0,-1.2714844 -0.498047,-1.8867188 -0.498046,-0.6210937 -1.382812,-0.6210937 -0.896484,0 -1.394531,0.6210937 -0.492188,0.6152344 -0.492188,1.8867188 0,1.2304684 0.498047,1.8691404 0.498047,0.632813 1.388672,0.632813 0.878906,0 1.376953,-0.626953 0.503906,-0.632813 0.503906,-1.8750004 z"/>
        <path d="M 52.994411,12.271187 H 51.892849 V 8.5446243 q 0,-0.4511718 -0.05273,-0.84375 Q 51.78738,7.3024368 51.646755,7.0797806 51.500271,6.8336868 51.22488,6.7164993 50.94949,6.5934525 50.510036,6.5934525 q -0.451171,0 -0.943359,0.2226562 Q 49.07449,7.038765 48.623318,7.3844681 V 12.271187 H 47.521755 V 5.726265 h 1.101563 v 0.7265625 q 0.515625,-0.4277344 1.066406,-0.6679688 0.550781,-0.2402344 1.130859,-0.2402344 1.060547,0 1.617188,0.6386719 0.55664,0.6386719 0.55664,1.8398438 z"/>
    </g>
    <g aria-label="Sprinters" style="fill:#eeeeee">
        <path d="M 59.772778,5.0972567 Q 59.626293,4.9917879 59.421215,4.8980379 59.221996,4.8042879 58.987621,4.7339754 58.759106,4.6636629 58.507153,4.6226473 q -0.251954,-0.041016 -0.498047,-0.041016 -0.46875,0 -0.791016,0.1347656 -0.316406,0.1289062 -0.509766,0.3339844 -0.193359,0.1992187 -0.28125,0.4394531 -0.08203,0.2402344 -0.08203,0.4511719 0,0.2753906 0.07617,0.4980468 0.07617,0.2226563 0.228516,0.4277344 0.152343,0.2050781 0.392578,0.4101563 0.240234,0.2050781 0.5625,0.4394531 0.363281,0.2636719 0.644531,0.5214844 0.287109,0.2578125 0.486328,0.5332031 0.199219,0.2695312 0.298828,0.5742187 0.105469,0.2988282 0.105469,0.6503907 0,0.2167968 -0.04687,0.4804688 -0.04102,0.257812 -0.158203,0.521484 -0.111328,0.263672 -0.310547,0.515625 -0.199219,0.251953 -0.509766,0.445313 -0.304687,0.193359 -0.738281,0.310547 -0.433594,0.117187 -1.019531,0.117187 -0.328125,0 -0.644531,-0.04687 -0.316407,-0.04687 -0.603516,-0.123047 -0.28125,-0.07617 -0.521484,-0.169922 -0.234375,-0.09961 -0.404297,-0.193359 l 0.169922,-1.019531 q 0.1875,0.134765 0.427734,0.257812 0.240234,0.117188 0.509766,0.210938 0.269531,0.08789 0.55664,0.140625 0.28711,0.05273 0.56836,0.05273 0.445312,0 0.761718,-0.105469 0.322266,-0.105468 0.527344,-0.287109 0.210938,-0.1875 0.304688,-0.439453 0.09961,-0.251953 0.09961,-0.544922 0,-0.2636718 -0.08203,-0.4746093 Q 57.944653,9.4331942 57.774731,9.2339754 57.604809,9.0288973 57.341137,8.8238192 57.083324,8.6128817 56.725903,8.3609285 56.438793,8.1558504 56.175121,7.9214754 55.917309,7.681241 55.71809,7.399991 55.524731,7.118741 55.407543,6.790616 55.296215,6.4566317 55.296215,6.0699129 q 0,-0.4804687 0.175781,-0.9082031 0.181641,-0.4335938 0.533203,-0.7558594 0.351563,-0.328125 0.867188,-0.515625 0.521484,-0.1933594 1.207031,-0.1933594 0.263672,0 0.521485,0.035156 0.263671,0.029297 0.509765,0.087891 0.246094,0.052734 0.462891,0.1230469 0.222656,0.064453 0.392578,0.1347656 z"/>
        <path d="m 65.977856,8.337491 q 0,0.4335938 -0.09375,0.9023438 -0.09375,0.4628906 -0.28711,0.9140622 -0.193359,0.451172 -0.486328,0.855469 -0.287109,0.404297 -0.679687,0.714844 -0.392578,0.304687 -0.890625,0.486328 -0.498047,0.175781 -1.101563,0.175781 -0.345703,0 -0.685547,-0.06445 -0.333984,-0.06445 -0.585937,-0.152344 l -0.597656,2.853516 H 59.596996 L 61.06184,8.0855379 q 0.04102,-0.1875 0.07617,-0.4511719 0.03516,-0.2636718 0.05859,-0.5273437 0.0293,-0.2695313 0.04687,-0.5039063 0.01758,-0.234375 0.01758,-0.3632812 h 0.984375 q 0,0.099609 -0.01758,0.2695312 -0.01172,0.1699219 -0.03516,0.3574219 -0.02344,0.1816406 -0.04687,0.3574219 -0.02344,0.1699219 -0.04101,0.2753906 h 0.02344 q 0.416016,-0.7089844 0.9375,-1.0546875 0.521485,-0.3515625 1.136719,-0.3515625 0.410156,0 0.738281,0.140625 0.328125,0.140625 0.556641,0.421875 0.234375,0.28125 0.357422,0.703125 0.123047,0.421875 0.123047,0.9785156 z m -0.984375,0.041016 q 0,-0.3164063 -0.05859,-0.5859375 Q 64.882153,7.5230379 64.753246,7.3296785 64.62434,7.1363192 64.419262,7.024991 64.220043,6.9136629 63.927074,6.9136629 q -0.304687,0 -0.574218,0.1289063 -0.263672,0.1230468 -0.492188,0.3339843 -0.228515,0.2109375 -0.416015,0.4921875 -0.1875,0.2753907 -0.333985,0.5742188 -0.146484,0.2988281 -0.251953,0.6035156 -0.09961,0.2988281 -0.152344,0.5625 l -0.36914,1.7402346 q 0.105468,0.04687 0.251953,0.08789 0.146484,0.03516 0.304687,0.06445 0.158203,0.0293 0.322266,0.04687 0.164062,0.01758 0.304687,0.01758 0.404297,0 0.744141,-0.134766 0.345703,-0.134766 0.615234,-0.363281 0.275391,-0.234375 0.480469,-0.544922 0.210938,-0.316406 0.351563,-0.6679688 0.140625,-0.3574219 0.210937,-0.7324219 0.07031,-0.3808594 0.07031,-0.7441406 z"/>
        <path d="m 70.923168,7.259366 h -0.02344 q -0.117188,-0.070312 -0.310547,-0.1347656 -0.1875,-0.070312 -0.375,-0.070312 -0.339844,0 -0.650391,0.2226563 -0.310547,0.2167968 -0.568359,0.5800781 -0.251953,0.3574219 -0.445313,0.8203125 -0.1875,0.4628906 -0.292968,0.9492187 l -0.5625,2.6132815 h -0.960938 l 0.84375,-3.9843752 q 0.05273,-0.2460938 0.105469,-0.515625 0.05273,-0.2695313 0.09375,-0.5390625 0.04687,-0.2695313 0.08203,-0.515625 0.03516,-0.2460938 0.05273,-0.4453125 h 0.949219 q -0.01758,0.1757812 -0.04102,0.375 -0.02344,0.1933594 -0.04687,0.3808594 -0.02344,0.1816406 -0.04687,0.3339843 -0.02344,0.1464844 -0.03516,0.2285157 h 0.02344 q 0.1875,-0.3339844 0.380859,-0.6035157 0.19336,-0.2695312 0.404297,-0.4570312 0.216797,-0.1933594 0.457031,-0.2988281 0.240235,-0.1054688 0.521485,-0.1054688 0.164062,0 0.322265,0.035156 0.164063,0.029297 0.292969,0.064453 z"/>
        <path d="m 73.143871,12.216397 q -0.146484,0.04687 -0.333984,0.07617 -0.181641,0.0293 -0.363281,0.0293 -0.591797,0 -0.884766,-0.292969 -0.292969,-0.298828 -0.292969,-0.796875 0,-0.146484 0.0293,-0.345703 0.0293,-0.199219 0.09375,-0.492187 l 0.873047,-4.1542972 h 0.972656 l -0.878906,4.1777342 q -0.05273,0.246094 -0.07617,0.38086 -0.01758,0.134765 -0.01758,0.228515 0,0.240235 0.128906,0.369141 0.134766,0.123047 0.421875,0.123047 0.152344,0 0.263672,-0.01758 0.117188,-0.01758 0.216797,-0.05274 z m 0.685547,-8.1152341 q 0,0.2636719 -0.18164,0.4511719 -0.175782,0.1875 -0.439454,0.1875 -0.257812,0 -0.451171,-0.1816406 -0.1875,-0.1875 -0.1875,-0.4570313 0,-0.2695312 0.1875,-0.4394531 0.193359,-0.1699219 0.451171,-0.1699219 0.257813,0 0.439454,0.1757813 0.18164,0.1699218 0.18164,0.4335937 z"/>
        <path d="m 79.940746,7.7398348 q 0,0.087891 -0.02344,0.2402344 -0.01758,0.1523437 -0.05273,0.328125 -0.0293,0.1757812 -0.06445,0.3515625 -0.0293,0.1699218 -0.05859,0.2929687 l -0.697266,3.2871096 h -0.972656 l 0.732422,-3.5156252 q 0.02344,-0.09375 0.04687,-0.2167969 0.02344,-0.1230469 0.04102,-0.2460937 0.01758,-0.1230469 0.0293,-0.2226563 0.01172,-0.1054687 0.01172,-0.1640625 0,-0.4453125 -0.216797,-0.703125 -0.210938,-0.2578125 -0.632813,-0.2578125 -0.386718,0 -0.767578,0.2285156 -0.380859,0.2285157 -0.703125,0.5800782 -0.322265,0.3515625 -0.55664,0.7734375 -0.228516,0.421875 -0.310547,0.8144531 l -0.626953,2.9296877 h -0.972657 l 0.925782,-4.2832033 q 0.04687,-0.2285157 0.09375,-0.4746094 0.04687,-0.2519531 0.08789,-0.4804688 0.04102,-0.234375 0.07031,-0.4335937 0.0293,-0.1992188 0.04687,-0.328125 h 0.9375 q -0.0293,0.2285156 -0.07031,0.4804687 -0.04102,0.2460938 -0.07031,0.4570313 -0.03516,0.2460937 -0.07617,0.4804687 h 0.02344 q 0.205079,-0.3222656 0.451172,-0.6035156 0.251953,-0.2871094 0.539063,-0.4980469 0.292969,-0.2167968 0.615234,-0.3398437 0.328125,-0.1230469 0.685547,-0.1230469 0.398438,0 0.685547,0.1230469 0.287109,0.1171875 0.474609,0.3339844 0.19336,0.2167968 0.28125,0.5214843 0.09375,0.3046875 0.09375,0.6679688 z"/>
        <path d="m 84.598949,7.0542879 h -1.511718 l -0.673828,3.1816411 q -0.03516,0.18164 -0.07031,0.392578 -0.03516,0.210937 -0.03516,0.339843 0,0.298829 0.128906,0.433594 0.134766,0.128906 0.421875,0.128906 0.07031,0 0.181641,-0.02344 0.111328,-0.02344 0.228515,-0.05859 0.117188,-0.03516 0.228516,-0.07617 0.117187,-0.04687 0.205078,-0.08203 l -0.181641,0.84375 q -0.205078,0.08789 -0.46875,0.146484 -0.257812,0.06445 -0.492187,0.06445 -0.333984,0 -0.568359,-0.08789 -0.234375,-0.08203 -0.386719,-0.240234 -0.146485,-0.158204 -0.216797,-0.38086 -0.06445,-0.228515 -0.06445,-0.509765 0,-0.169922 0.0293,-0.392579 0.03516,-0.228515 0.08203,-0.416015 L 82.126293,7.0542879 H 81.130199 L 81.31184,6.2398348 h 0.984375 L 82.606762,4.774991 q 0.02344,-0.011719 0.175781,-0.052734 0.158203,-0.046875 0.339844,-0.099609 0.1875,-0.058594 0.339844,-0.1054688 0.158203,-0.046875 0.175781,-0.052734 l -0.369141,1.7753906 h 1.511719 z"/>
        <path d="m 90.059887,7.6460848 q 0,0.4746094 -0.210938,0.8671875 -0.210937,0.3867187 -0.697265,0.6679687 -0.486328,0.2753907 -1.283203,0.4277344 -0.796875,0.1523438 -1.96875,0.1582031 -0.01172,0.064453 -0.01172,0.1347657 0,0.064453 0,0.1171878 0,0.316406 0.08789,0.597656 0.08789,0.28125 0.269531,0.492187 0.1875,0.210938 0.474609,0.333985 0.292969,0.123047 0.691406,0.123047 0.404297,0 0.884766,-0.152344 0.486328,-0.158203 0.925781,-0.445313 l -0.18164,0.949219 q -0.322266,0.1875 -0.767578,0.328125 -0.445313,0.140625 -0.996094,0.140625 -0.66211,0 -1.119141,-0.205078 -0.451172,-0.205078 -0.732422,-0.544922 -0.27539,-0.345703 -0.398437,-0.791015 -0.123047,-0.451172 -0.123047,-0.9433598 0,-0.5273438 0.117187,-1.0136719 0.117188,-0.4921875 0.328125,-0.9140625 0.216797,-0.421875 0.515625,-0.7675781 0.298829,-0.3515625 0.66211,-0.5976563 0.363281,-0.2460937 0.779297,-0.3808594 0.416015,-0.1347656 0.861328,-0.1347656 0.46289,0 0.814453,0.1230469 0.357422,0.1230469 0.591797,0.3398437 0.240234,0.2109375 0.363281,0.4921875 0.123047,0.28125 0.123047,0.5976563 z m -0.978516,0.046875 q 0,-0.3691406 -0.27539,-0.5742188 -0.269532,-0.2050781 -0.720703,-0.2050781 -0.357422,0 -0.691407,0.1582031 -0.333984,0.1523438 -0.615234,0.4277344 -0.28125,0.2695313 -0.486328,0.6503906 -0.205078,0.375 -0.298828,0.8144532 0.83789,0 1.423828,-0.082031 0.585937,-0.087891 0.955078,-0.2519531 0.369141,-0.1640625 0.539062,-0.3984375 0.169922,-0.2402344 0.169922,-0.5390625 z"/>
        <path d="m 94.776684,7.259366 h -0.02344 q -0.117187,-0.070312 -0.310547,-0.1347656 -0.1875,-0.070312 -0.375,-0.070312 -0.339843,0 -0.65039,0.2226563 -0.310547,0.2167968 -0.56836,0.5800781 -0.251953,0.3574219 -0.445312,0.8203125 -0.1875,0.4628906 -0.292969,0.9492187 l -0.5625,2.6132815 h -0.960937 l 0.84375,-3.9843752 q 0.05273,-0.2460938 0.105468,-0.515625 0.05273,-0.2695313 0.09375,-0.5390625 0.04687,-0.2695313 0.08203,-0.515625 0.03516,-0.2460938 0.05273,-0.4453125 h 0.949219 q -0.01758,0.1757812 -0.04102,0.375 -0.02344,0.1933594 -0.04687,0.3808594 -0.02344,0.1816406 -0.04687,0.3339843 -0.02344,0.1464844 -0.03516,0.2285157 h 0.02344 q 0.1875,-0.3339844 0.38086,-0.6035157 0.193359,-0.2695312 0.404297,-0.4570312 0.216797,-0.1933594 0.457031,-0.2988281 0.240234,-0.1054688 0.521484,-0.1054688 0.164063,0 0.322266,0.035156 0.164062,0.029297 0.292969,0.064453 z"/>
        <path d="M 98.913403,7.2945223 Q 98.649731,7.1246004 98.321606,7.0191317 97.993481,6.9136629 97.665356,6.9136629 q -0.550782,0 -0.855469,0.2519531 -0.298828,0.2519532 -0.298828,0.6679688 0,0.1699219 0.05273,0.3105469 0.05859,0.140625 0.164063,0.2695312 0.111328,0.1230469 0.27539,0.2402344 0.169922,0.1171875 0.386719,0.2519531 0.65625,0.3808594 0.943359,0.7851563 0.292969,0.3984373 0.292969,0.9023433 0,0.339844 -0.128906,0.667969 -0.123047,0.322266 -0.398438,0.574219 -0.27539,0.246094 -0.714843,0.398437 -0.433594,0.152344 -1.060547,0.152344 -0.175781,0 -0.386719,-0.02344 -0.210937,-0.02344 -0.427734,-0.07031 -0.210938,-0.04687 -0.410157,-0.111328 -0.193359,-0.07031 -0.339843,-0.158203 l 0.193359,-0.914063 q 0.117188,0.08203 0.287109,0.164063 0.175782,0.08203 0.375,0.146484 0.205079,0.06445 0.421875,0.105469 0.222657,0.04102 0.439454,0.04102 0.585937,0 0.873046,-0.234375 0.292969,-0.234375 0.292969,-0.650391 0,-0.152344 -0.04687,-0.28125 -0.04102,-0.128906 -0.152344,-0.257812 Q 97.331371,10.013272 97.149731,9.884366 96.96809,9.7496004 96.692699,9.5855379 96.095043,9.2222567 95.807934,8.8296785 95.526684,8.431241 95.526684,7.9331942 q 0,-0.3632813 0.134765,-0.6914063 0.134766,-0.3339844 0.398438,-0.5859375 0.269531,-0.2578125 0.673828,-0.4101562 0.404297,-0.1523438 0.943359,-0.1523438 0.421875,0 0.796875,0.082031 0.38086,0.082031 0.644532,0.2109375 z"/>
    </g>
</svg>
